<?xml version="1.0" encoding="UTF-8"?>
<!DOCTYPE svg PUBLIC "-//W3C//DTD SVG 1.1//EN" "http://www.w3.org/Graphics/SVG/1.1/DTD/svg11.dtd">
<!-- Creator: CorelDRAW X7 -->
<svg xmlns="http://www.w3.org/2000/svg" xml:space="preserve" width="85.877mm" height="85.877mm" version="1.1" style="shape-rendering:geometricPrecision; text-rendering:geometricPrecision; image-rendering:optimizeQuality; fill-rule:evenodd; clip-rule:evenodd"
viewBox="0 0 3295 3295"
 xmlns:xlink="http://www.w3.org/1999/xlink">
 <defs>
  <style type="text/css">
   <![CDATA[
    .str0 {stroke:black;stroke-width:115.099}
    .str3 {stroke:black;stroke-width:19.1832}
    .str6 {stroke:black;stroke-width:15.3465}
    .str4 {stroke:black;stroke-width:7.67327}
    .str5 {stroke:white;stroke-width:7.67327}
    .str1 {stroke:black;stroke-width:3.83663}
    .str2 {stroke:#E6E6E6;stroke-width:3.83663}
    .fil1 {fill:black}
    .fil0 {fill:white}
   ]]>
  </style>
 </defs>
 <g id="Laag_x0020_1">
  <metadata id="CorelCorpID_0Corel-Layer"/>
  <path class="fil0 str0" d="M1647 58c878,0 1590,711 1590,1589 0,878 -712,1590 -1590,1590 -878,0 -1589,-712 -1589,-1590 0,-878 711,-1589 1589,-1589z"/>
  <path class="fil1" d="M2281 442c-114,2 -184,-18 -199,75 287,157 343,461 267,811 441,492 283,941 -43,1386 -84,114 -258,384 -428,548 0,0 -23,3 -25,3 -127,19 -223,32 -420,2 -8,-1 -30,-5 -37,-11 -117,-117 -240,-302 -399,-538 -349,-476 -482,-901 -51,-1397 -77,-331 1,-647 264,-805 -15,-72 -65,-79 -208,-74 66,-27 112,-35 195,-24l-105 -146c103,55 221,123 323,147 78,18 152,-10 231,-11 75,-1 157,27 225,7 93,-26 229,-104 323,-158l-134 165c64,-22 152,4 221,20zm-647 2803c55,-1 142,30 224,-60 121,-134 255,-328 356,-470 199,-346 244,-810 -2,-1156 -158,131 -342,155 -506,2 -10,27 -45,87 -61,96 -17,-16 -51,-73 -60,-94 -159,138 -346,134 -515,0 -208,429 -257,723 0,1153 132,171 255,347 362,469 82,93 143,59 202,60zm42 -2002c43,15 68,47 78,93 10,77 -5,115 -27,179 153,122 342,74 456,-73 230,-299 87,-793 -215,-840 -35,-6 -75,40 -97,63 -158,161 -194,316 -195,578zm-111 272c-5,-20 -36,-77 -29,-170 4,-53 41,-88 76,-99 8,-288 -76,-465 -185,-578 -24,-25 -63,-70 -95,-67 -43,5 -86,22 -120,45 -347,228 -240,864 101,931 117,22 165,-14 252,-62z"/>
  <path class="fil1 str1" d="M1642 1829c16,-14 52,-105 62,-142 44,-124 87,-333 3,-431 -12,-13 -21,-20 -35,-25 -55,-19 -130,22 -140,151 -11,147 54,355 110,447z"/>
  <path class="fil0 str2" d="M1556 1338c23,-69 84,-111 136,-64 125,115 -7,371 -49,455 -42,-87 -131,-260 -87,-391z"/>
  <g id="_1648730772816">
   <path class="fil0 str3" d="M1977 887c105,9 186,123 186,254 0,132 -82,237 -186,235 -107,-2 -196,-117 -196,-256 0,-139 91,-243 196,-233z"/>
   <g>
    <path class="fil1" d="M2070 1027c22,37 32,85 25,134 -13,90 -79,148 -147,131 -68,-17 -113,-104 -100,-194 13,-87 76,-145 142,-132l80 61zm-29 -96c26,7 42,39 37,72 -5,33 -29,54 -54,48 -25,-6 -42,-38 -37,-71 5,-33 29,-55 54,-49z"/>
   </g>
   <circle class="fil0" transform="matrix(0.217031 -0.582305 0.446988 0.282732 2032.74 990.132)" r="93"/>
  </g>
  <g>
   <path class="fil0 str3" d="M1977 887c105,9 186,123 186,254 0,132 -82,237 -186,235 -107,-2 -196,-117 -196,-256 0,-139 91,-243 196,-233z"/>
   <ellipse class="fil1 str4" cx="1972" cy="1131" rx="125" ry="165"/>
  </g>
  <g>
   <path class="fil0 str3" d="M1315 887c105,9 185,123 185,254 0,132 -81,237 -185,235 -107,-2 -196,-117 -196,-256 0,-139 90,-243 196,-233z"/>
   <ellipse class="fil1 str4" cx="1310" cy="1131" rx="125" ry="165"/>
  </g>
  <ellipse class="fil0 str5" cx="2036" cy="999" rx="46" ry="55"/>
  <ellipse class="fil0 str5" cx="1367" cy="999" rx="46" ry="55"/>
  <path class="fil0 str6" d="M1487 3228c-9,-8 -35,53 -45,25 -34,-99 34,-128 83,-129 92,-2 117,129 79,130 -39,2 -21,-49 -56,-1 -35,49 -47,-12 -61,-25z"/>
  <path class="fil0 str6" d="M1791 3228c9,-8 36,53 45,25 35,-99 -33,-128 -82,-129 -93,-2 -118,129 -79,130 38,2 21,-49 56,-1 35,49 46,-12 60,-25z"/>
 </g>
</svg>
